<svg xmlns="http://www.w3.org/2000/svg" fill="none" viewBox="0 0 16 16"><path fill="#fff" d="m9.293 3.333 3.374 3.374-.64.641a4.333 4.333 0 0 0-4.678 4.677l-1.307 1.307a1.5 1.5 0 0 1-.667.387l-3.41.93a.5.5 0 0 1-.613-.614l.93-3.41a1.5 1.5 0 0 1 .386-.667l6.625-6.625Zm4.728-1.353a2.386 2.386 0 0 1 0 3.373L13.374 6 10 2.627l.647-.647a2.386 2.386 0 0 1 3.374 0Zm-4.5 7.336a1.333 1.333 0 0 1-.962 1.665l-.389.096c-.062.399-.06.806.004 1.204l.36.087a1.332 1.332 0 0 1 .967 1.673l-.125.422c.293.257.627.466.99.614l.329-.346a1.333 1.333 0 0 1 1.932 0l.332.35c.361-.146.696-.352.99-.608l-.133-.458a1.333 1.333 0 0 1 .961-1.664l.39-.096c.062-.4.06-.806-.005-1.205l-.36-.087a1.333 1.333 0 0 1-.967-1.673l.125-.42a3.521 3.521 0 0 0-.99-.615l-.328.346a1.334 1.334 0 0 1-1.933 0l-.332-.35a3.514 3.514 0 0 0-.989.608l.132.457Zm2.146 3.35c-.533 0-.966-.447-.966-1 0-.552.433-1 .966-1 .534 0 .967.448.967 1 0 .553-.433 1-.967 1Z"/></svg>