<svg xmlns="http://www.w3.org/2000/svg" fill="none" viewBox="0 0 32 32"><path fill="#fff" fill-rule="evenodd" d="M32 16c0 8.837-7.163 16-16 16S0 24.837 0 16 7.163 0 16 0s16 7.163 16 16Zm-5.028 0c0 6.06-4.912 10.971-10.972 10.971-.42 0-.835-.023-1.242-.069 5.514-.58 9.811-5.243 9.811-10.911 0-5.64-4.255-10.285-9.729-10.902.381-.04.768-.06 1.16-.06 6.06 0 10.972 4.912 10.972 10.971Zm-14.515 7.728c3.616-.639 6.366-3.856 6.366-7.728s-2.75-7.09-6.366-7.728a7.843 7.843 0 1 1 0 15.456Z" clip-rule="evenodd"/></svg>