<svg xmlns="http://www.w3.org/2000/svg" fill="none" viewBox="0 0 24 24"><path fill="#999" d="M8.904 16.5h6.192C14.476 19.773 13.234 22 12 22c-1.197 0-2.4-2.094-3.038-5.204l-.058-.294V16.5Zm-5.838.001H7.37c.365 2.082.983 3.854 1.793 5.093A10.03 10.03 0 0 1 3.21 16.78l-.145-.279Zm13.563 0h4.305a10.03 10.03 0 0 1-6.097 5.093c.755-1.158 1.344-2.778 1.715-4.681l.077-.412Zm.302-6.5h4.87a10.057 10.057 0 0 1-.257 5H16.84c.154-1.443.197-2.895.13-4.344L16.93 10V10ZM2.198 10h4.87a28.213 28.213 0 0 0 .034 4.42l.057.58H2.456a10.047 10.047 0 0 1-.258-5Zm6.377 0h6.85a25.847 25.847 0 0 1-.037 4.425l-.062.575H8.674a25.98 25.98 0 0 1-.132-4.512L8.575 10Zm6.37-7.424-.11-.17A10.027 10.027 0 0 1 21.373 8.5H16.78c-.316-2.416-.956-4.492-1.837-5.923l.002-.001Zm-5.903-.133.122-.037c-.881 1.35-1.536 3.33-1.884 5.654l-.061.44H2.628a10.028 10.028 0 0 1 6.414-6.057ZM12 2.002c1.319 0 2.646 2.542 3.214 6.183l.047.315H8.739c.54-3.809 1.904-6.498 3.26-6.498Z"/></svg>